<svg xmlns="http://www.w3.org/2000/svg" viewBox="182.93373107910156 102.87548828125 258.0662841796875 405.49835205078125">
  <style>
				path { fill: #000; }
				@media (prefers-color-scheme: dark) {
					path { fill: #fff; }
				}
  </style>
  <path d="M303,103c15.441-.142,33.58-0.608,46,2a20.405,20.405,0,0,1,1,7c-2.277,2.956-.485,6.829-2,11-0.918,2.528-5.251,3.536-5,7,0.167,2.307,3.19,11.728,4,15,1.974,7.978.231,17.685,2,25,1.787,7.388-.891,15.1,3,20,4.238,3.034,34.122,1.1,42,1,4.789-2.078,33.536.115,41,1,1.367,2.091,5.111,4.045,6,6v17c-1.944,2.831-1,10.461-1,15,0,11.234,1.65,18.5-1,29-4.548,18.032-3.412,41.512-8,60-1.62,6.529.474,17.243,0,21-1.182,9.359.659,26.569-1,34a59.191,59.191,0,0,0,0,22q0.5,15,1,30c3.689,15.36,2.334,34.3,6,49,0.956,3.836,1.517,17.022,1,18-1.466,6.359-7.3,5.4-15,5-3.933-2.8-12.462.343-18-1-12.346-2.994-30.826-1.023-45-1-52.92.088-104.4,14.889-154,12-1.94-3.129-5.591-5.433-7-9q-1-7-2-14c-3.05-9.86-4.21-23.15-7-34q-0.5-12.5-1-25c-2.542-10.519-2-23.868-2-36V376c-1.45-6.49-1-21.962-1-33,0-21.652.137-46.412,0-65-0.152-20.736-1.721-45.007,1-64,0.815-5.692-7.908-9.326-2-17,0.906-3.2,1.844-4.049,5-5,7.075-4.98,21.086.353,31-2,17.316-4.111,40.12-4.959,60-5l1-2c5.546-6.814.535-19.625,3-30,1.249-5.258-1.14-19.953,1-25l3-2c1.707-4.12-1.548-8.774-2-11-0.8-3.945,1.9-7.3,3-10C292.707,104.139,300.682,104.689,303,103Zm-8,9q1,5.5,2,11a27.912,27.912,0,0,0,9,1c3.628,2.615,26.354,1.1,33,1a17.078,17.078,0,0,0,1-6c1.236-1.627,1.077-4.945,1-8C325.344,110.977,310.669,111.032,295,112ZM429,490a117.409,117.409,0,0,0-3-27c-2.4-9.7-.767-21.775-3-31q-0.5-16-1-32c-1.56-6.612-2.9-38.078-1-46,2.636-11,.425-26.406,3-37V305c2.021-8.371.785-19.08,3-28,1.925-7.753,3.074-18.155,5-26,2.29-9.326-1.823-17.906-1-25,0.832-7.165,1.887-17.219,2-25-2.949-1.592-5.722-2.075-11-2-4.7-2.829-12.875,1.64-20,0-13.936-3.207-38.173,2.307-56-1-0.961-1.778-1.3-1.641-2-4-3.426-4.843-1.346-12.213-3-19-1.783-7.316-.038-16.835-2-25a159.242,159.242,0,0,1-3-17l-41-1c-2.95,8.424-1.071,23.691-1,34-1.724,2.629.039,7.17-1,11-4.447,16.4-5,16.507-26,16-3,2.035-8.645-.048-13,1-10.414,2.5-26.9,3.808-38,4-7.363.128-18.781-1.515-23,2-1.056,1.384-1,3.295-1,6,4.8,4.164,1,13.307,2,19,2.6,14.878-1.166,33.105,1,48,0.407,2.8-2,7.729-1,12,1.065,4.539-.525,10.5,0,15,1.227,10.529-.179,23.679,1,35,0.4,3.8-.945,10.87,0,15q-0.5,10-1,20c2.364,10.437,1.9,28.134,2,39v15c3,12.025.686,27.494,4,40q4,17.5,8,35c3.776,2.019,9.572,2.105,16,2,6.584-4.543,34.566-1.49,45-4,4.612-1.109,12.3-1.875,17-3h11c21.227-5.114,49.094-6,74-6h32C410.186,489.689,420.99,489.971,429,490ZM231,294h4l1,3c2.036,2.063,3.8,11.848,3,16-2.361,12.212-1.4,49.3-9,58-1.806,1.892-3.6,2.587-7,3-1.092-.93-0.155-0.355-2-1-5.263-8.673-11.089-14.31-12-28,2.464-1.5,2.245-2.377,6-3,1.429,6.1,3.432,18.673,9,21v-1c5.962-8.259,5.245-41.5,7-52C232.072,303.584,228.071,300.069,231,294Zm75,4c2.14,0.336,1.891.136,3,1,2.738,3.834,2.081,26.871,2,34h1v1c13.2-.369,23.751,7.285,25,18-2.368,3.233-2.663,7.8-5,11-4.414,6.038-19.959,11.743-28,5-3.963-5.6-.836-15.143-1-23-0.254-12.164-1.046-30.048-1-44A15.958,15.958,0,0,0,306,298Zm49,7c5.334-.119,13.6,1.582,16,1,9.149-2.216,26.809-2.261,31,4,2.109,2.538,3.272,11.667,2,17-3.785,15.869,1,29.24,1,45-2.265,1.221-2.243,1.7-6,2l-1-3c-2.425-3.333-.782-8.159-2-13-2.918-11.594-.108-26.512,0-43h-1v-1c-8.328-.568-26.9-2.207-36,1,1.559,8.888,5.722,14.242,9,22,6.332-.342,9.2-0.551,10,5-2.861,1.675-6.14,2.609-10,4,0.209,12.542-4.887,27.686-16,29-1.67-2.718-2.619-2.482-3-7,7.8-4.1,10.507-9.7,11-21h-1v-1H348c-1.119-2.085-1.5-1.807-2-5,1.359-.673,2.759-2.538,4-3,5.836-2.174,8.185,2.443,9-5-2.328-2.169-11.111-17.255-8-24C351.55,307.808,354.106,306.407,355,305Zm-80,3h3c1.221,2.265,1.7,2.243,2,6-5.256,3.246-21.356,20.059-22,27,2.027,1.455,16.305,17.843,17,20h-1c-1.3,2-1.362,2.166-4,3-6.409-8.674-20.3-14-21-28,6.379-4.027,10.535-10.981,15-17C266.96,315.01,272.059,312.129,275,308Zm38,34c-2,2.829-2.142,6.6-2,12-1.236,1.627-1.077,4.945-1,8a20.405,20.405,0,0,0,7,1c1.322-1.151,2.9-1.536,5-2,2.58-4.368,4.876-5.673,5-13-2.414-1.52-2.874-3-6-4C319.046,342.281,316.763,342.053,313,342Z"/>
</svg>
